<svg width="108" height="67" viewBox="0 0 108 67" fill="none" xmlns="http://www.w3.org/2000/svg">
<mask id="path-1-inside-1_22_241" fill="white">
<path fill-rule="evenodd" clip-rule="evenodd" d="M4.17383 16.0571C4.17383 16.0571 4.17383 16.0571 4.17383 16.0571C4.17383 43.6714 26.5596 66.0571 54.1738 66.0571C81.7881 66.0571 104.174 43.6714 104.174 16.0571L4.17383 16.0571Z"/>
</mask>
<path d="M4.17383 16.0571L4.17383 8.91427L-2.96903 8.91427V16.0571H4.17383ZM104.174 16.0571H111.317V8.91428L104.174 8.91428L104.174 16.0571ZM11.3167 16.0571C11.3167 16.0571 11.3167 16.0571 11.3167 16.0571C11.3167 16.0571 11.3167 16.0571 11.3167 16.0571H-2.96903C-2.96903 16.0571 -2.96903 16.0571 -2.96903 16.0571C-2.96903 16.0571 -2.96903 16.0571 -2.96903 16.0571H11.3167ZM54.1738 58.9143C30.5045 58.9143 11.3167 39.7265 11.3167 16.0571H-2.96903C-2.96903 47.6163 22.6147 73.2 54.1738 73.2V58.9143ZM97.031 16.0571C97.031 39.7265 77.8432 58.9143 54.1738 58.9143V73.2C85.733 73.2 111.317 47.6163 111.317 16.0571H97.031ZM104.174 8.91428L4.17383 8.91427L4.17383 23.2L104.174 23.2L104.174 8.91428Z" fill="#FFF7D2" mask="url(#path-1-inside-1_22_241)"/>
<circle cx="47.0311" cy="50.3428" r="4.28571" fill="#FFF7D2"/>
<circle cx="29.8883" cy="37.4857" r="4.28571" fill="#FFF7D2"/>
<circle cx="55.6024" cy="30.3428" r="4.28571" fill="#FFF7D2"/>
<circle cx="4.28571" cy="4.28571" r="4.28571" transform="matrix(-1 0 0 1 79.8882 40.3428)" fill="#FFF7D2"/>
<circle cx="41.3167" cy="4.62855" r="4.28571" fill="#FFF7D2"/>
<path d="M28.9779 4.6286H6.74526C5.3251 4.6286 4.17383 5.77987 4.17383 7.20003V16.3429C4.17383 17.763 5.3251 18.9143 6.74526 18.9143H101.602C103.023 18.9143 104.174 17.763 104.174 16.3429V7.20003C104.174 5.77987 103.023 4.6286 101.602 4.6286H53.6374" stroke="#FFF7D2" stroke-width="7.14286" stroke-linecap="round"/>
</svg>
